<svg width="86" height="86" viewBox="0 0 86 86" fill="none" xmlns="http://www.w3.org/2000/svg">
<g clip-path="url(#clip0_89_375)">
<path d="M43 49.0469C46.3396 49.0469 49.0469 46.3396 49.0469 43C49.0469 39.6604 46.3396 36.9531 43 36.9531C39.6604 36.9531 36.9531 39.6604 36.9531 43C36.9531 46.3396 39.6604 49.0469 43 49.0469Z" fill="#61DAFB"/>
<path d="M53.325 48.9512C57.2799 41.8306 59.9167 34.4939 60.6553 28.555C61.394 22.616 60.1741 18.5612 57.2639 17.2823C54.3537 16.0034 49.9916 17.6052 45.137 21.7354C40.2824 25.8656 35.3329 32.1859 31.3772 39.3062C27.4215 46.4264 24.7836 53.7635 24.0435 59.7036C23.3035 65.6437 24.522 69.7003 27.4311 70.9812C30.3402 72.2621 34.7016 70.6624 39.5559 66.5339C44.4103 62.4054 49.3601 56.0862 53.3166 48.9663L53.325 48.9512ZM32.6834 48.9663C36.6399 56.0862 41.5897 62.4054 46.4441 66.5339C51.2984 70.6624 55.6598 72.2621 58.5689 70.9812C61.478 69.7003 62.6965 65.6437 61.9565 59.7036C61.2164 53.7635 58.5785 46.4264 54.6228 39.3062C50.6671 32.1859 45.7176 25.8656 40.863 21.7354C36.0084 17.6052 31.6463 16.0034 28.7361 17.2823C25.8259 18.5612 24.606 22.616 25.3447 28.555C26.0833 34.4939 28.7201 41.8306 32.675 48.9512L32.6834 48.9663ZM43.0084 54.9174C51.16 54.9166 58.9769 53.6595 64.7397 51.4227C70.5026 49.186 73.7394 46.1527 73.7383 42.99C73.7372 39.8274 70.4982 36.7945 64.7338 34.5583C58.9693 32.3221 51.1516 31.0659 43 31.0659C34.8484 31.0659 27.0307 32.3221 21.2662 34.5583C15.5018 36.7945 12.2628 39.8274 12.2617 42.99C12.2606 46.1527 15.4974 49.186 21.2603 51.4227C27.0231 53.6595 34.84 54.9166 42.9916 54.9174H43.0084Z" stroke="#61DAFB" stroke-width="3"/>
</g>
<defs>
<clipPath id="clip0_89_375">
<rect width="86" height="86" fill="white"/>
</clipPath>
</defs>
</svg>
