<svg width="91" height="92" viewBox="0 0 91 92" fill="none" xmlns="http://www.w3.org/2000/svg">
<rect width="91" height="91.0049" rx="15" fill="#FFCA28"/>
<path d="M55.1562 75.3956L61.7917 71.0045C62.3119 72.6384 65.605 76.5186 69.7645 76.5186C73.9241 76.5186 75.8554 74.2468 75.8554 72.7404C75.8554 68.6359 71.6079 67.1887 69.5679 66.4938C69.2351 66.3805 68.9615 66.2871 68.7741 66.2057C68.6779 66.1639 68.5327 66.1082 68.3464 66.037C66.0775 65.1702 57.7065 61.9721 57.7065 52.7014C57.7065 42.4906 67.5607 41.3164 69.7893 41.3164C71.2471 41.3164 78.2569 41.495 81.748 48.0555L75.3105 52.5486C73.8994 49.6893 71.5545 48.745 70.1112 48.745C66.5458 48.745 65.8029 51.3586 65.8029 52.5486C65.8029 55.887 69.6767 57.3834 72.9472 58.6468C73.8031 58.9774 74.6175 59.2918 75.3105 59.6195C78.8759 61.3042 84.125 64.0614 84.125 72.7404C84.125 77.0877 80.4788 84.1258 71.2996 84.1258C58.9692 84.1258 55.7009 76.723 55.1562 75.3956Z" fill="#3E3E3E"/>
<path d="M22.9688 76.2674L29.8849 71.879C30.4266 73.5118 32.5326 76.5226 35.5879 76.5226C38.6434 76.5226 40.2074 73.3844 40.2074 71.879V42.2822H48.713V71.879C48.8507 75.9613 46.5866 84.126 36.5944 84.126C27.4074 84.126 23.5881 78.666 22.9688 76.2674Z" fill="#3E3E3E"/>
</svg>
