<svg width="88" height="88" viewBox="0 0 88 88" fill="none" xmlns="http://www.w3.org/2000/svg">
<path fill-rule="evenodd" clip-rule="evenodd" d="M43.9985 43.9969C43.9985 37.9662 48.8876 33.0771 54.9183 33.0771C60.949 33.0771 65.838 37.9662 65.838 43.9969C65.838 50.0276 60.949 54.9166 54.9183 54.9166C48.8876 54.9166 43.9985 50.0276 43.9985 43.9969Z" fill="#1ABCFE"/>
<path fill-rule="evenodd" clip-rule="evenodd" d="M22.1587 65.8367C22.1587 59.806 27.0476 54.917 33.0784 54.917H43.9982V65.8367C43.9982 71.8674 39.1091 76.7565 33.0784 76.7565C27.0476 76.7565 22.1587 71.8674 22.1587 65.8367Z" fill="#0ACF83"/>
<path fill-rule="evenodd" clip-rule="evenodd" d="M43.9985 11.2383V33.0778H54.9183C60.949 33.0778 65.838 28.1887 65.838 22.158C65.838 16.1272 60.949 11.2383 54.9183 11.2383H43.9985Z" fill="#FF7262"/>
<path fill-rule="evenodd" clip-rule="evenodd" d="M22.1587 22.158C22.1587 28.1887 27.0476 33.0778 33.0784 33.0778H43.9982V11.2383H33.0784C27.0476 11.2383 22.1587 16.1272 22.1587 22.158Z" fill="#F24E1E"/>
<path fill-rule="evenodd" clip-rule="evenodd" d="M22.1587 43.9969C22.1587 50.0276 27.0476 54.9166 33.0784 54.9166H43.9982V33.0771H33.0784C27.0476 33.0771 22.1587 37.9662 22.1587 43.9969Z" fill="#A259FF"/>
</svg>
