<svg width="66" height="67" viewBox="0 0 66 67" fill="none" xmlns="http://www.w3.org/2000/svg">
<path d="M6.05724 36.3638C4.4705 34.777 4.4705 32.2044 6.05724 30.6177L30.4565 6.21837C32.0433 4.63164 34.6159 4.63164 36.2027 6.21837L60.6019 30.6177C62.1887 32.2044 62.1887 34.777 60.6019 36.3638L36.2027 60.763C34.6159 62.3498 32.0433 62.3498 30.4565 60.763L6.05724 36.3638Z" fill="#EE513B"/>
<path d="M25.5005 11.252L23.0298 13.7228L29.4113 20.1043C29.1531 20.6581 29.0089 21.2758 29.0089 21.9271C29.0089 23.7764 30.1708 25.3542 31.8043 25.9704V41.5813C30.1708 42.1975 29.0089 43.7753 29.0089 45.6245C29.0089 48.0105 30.9431 49.9447 33.3291 49.9447C35.7151 49.9447 37.6493 48.0105 37.6493 45.6245C37.6493 43.9481 36.6944 42.4945 35.2987 41.7785V25.9918L41.3988 32.0919C41.1532 32.6345 41.0166 33.2369 41.0166 33.8712C41.0166 36.2572 42.9508 38.1914 45.3368 38.1914C47.7228 38.1914 49.657 36.2572 49.657 33.8712C49.657 31.4852 47.7228 29.551 45.3368 29.551C44.8731 29.551 44.4266 29.624 44.0078 29.7592L37.4564 23.2078C37.5818 22.8032 37.6493 22.373 37.6493 21.9271C37.6493 19.5411 35.7151 17.6069 33.3291 17.6069C32.8833 17.6069 32.4533 17.6745 32.0485 17.7999L25.5005 11.252Z" fill="white"/>
</svg>
