<svg width="94" height="94" viewBox="0 0 94 94" fill="none" xmlns="http://www.w3.org/2000/svg">
<rect x="0.00195312" width="93.6" height="93.605" rx="15" fill="#3178C6"/>
<path fill-rule="evenodd" clip-rule="evenodd" d="M53.5771 80.5407V70.1862C55.3811 71.7158 57.4443 72.9102 59.669 73.713C61.7986 74.4904 64.0474 74.8901 66.3144 74.8943C67.4696 74.9109 68.6227 74.792 69.7501 74.5399C70.6157 74.3488 71.4436 74.0158 72.2004 73.5544C72.8052 73.1872 73.3096 72.6758 73.6685 72.066C73.9915 71.4986 74.1592 70.856 74.1545 70.203C74.1636 69.3317 73.8913 68.4807 73.3783 67.7764C72.7948 66.9999 72.0797 66.3317 71.2655 65.802C70.2561 65.1331 69.1927 64.5495 68.0863 64.0572C66.86 63.4969 65.5381 62.9243 64.1206 62.3393C61.0142 61.1846 58.2387 59.2852 56.0375 56.8077C54.2434 54.5732 53.2999 51.7748 53.3746 48.9102C53.3156 46.744 53.8167 44.5992 54.8293 42.6833C55.7848 40.958 57.1401 39.4871 58.7814 38.3937C60.5483 37.2291 62.5099 36.3912 64.5729 35.9198C66.8553 35.3803 69.1937 35.114 71.5389 35.1267C73.6844 35.1075 75.8282 35.2531 77.9514 35.562C79.7096 35.8302 81.4348 36.2827 83.0983 36.912V46.5747C82.2992 46.0226 81.4507 45.5458 80.5636 45.1504C79.6495 44.7436 78.7064 44.4052 77.7421 44.1379C76.7942 43.8721 75.8288 43.6725 74.8531 43.5405C73.9497 43.4133 73.0385 43.3479 72.1261 43.3448C71.0413 43.3338 69.9587 43.447 68.8996 43.6823C68.037 43.8673 67.2097 44.1898 66.4494 44.6374C65.8274 45.0032 65.2975 45.5066 64.9003 46.1089C64.5345 46.6845 64.3445 47.3542 64.3535 48.036C64.3426 48.7769 64.5555 49.5038 64.9644 50.1218C65.4376 50.8024 66.0271 51.3942 66.7059 51.87C67.5725 52.4865 68.4905 53.0274 69.4498 53.4867C70.5298 54.0154 71.7448 54.5599 73.0948 55.1202C74.8111 55.8309 76.4767 56.6586 78.0796 57.5974C79.472 58.4067 80.7472 59.4026 81.8698 60.5573C82.9156 61.6432 83.7378 62.9241 84.2896 64.3272C85.5973 68.0791 85.3717 72.1954 83.6619 75.7819C82.7072 77.514 81.3376 78.9821 79.676 80.0547C77.8862 81.1958 75.901 81.9967 73.8204 82.4172C71.503 82.9018 69.1409 83.1405 66.7734 83.1293C64.3442 83.1392 61.9195 82.9223 59.5306 82.4813C57.4635 82.1228 55.4585 81.4692 53.5771 80.5407ZM49.6824 44.4079H36.1824V82.3902H25.4803V44.4079H12.041V35.8793H49.6824V44.4079Z" fill="white"/>
</svg>
